<svg width="24" height="24" viewBox="0 0 24 24" fill="none" xmlns="http://www.w3.org/2000/svg">
<path d="M12 2C6.48 2 2 6.48 2 12C2 17.52 6.48 22 12 22C17.52 22 22 17.52 22 12C22 6.48 17.52 2 12 2ZM17 13H12.41L14.7 15.29C14.89 15.48 15 15.73 15 16C15 16.27 14.89 16.52 14.7 16.71C14.52 16.9 14.27 17 14 17C13.73 17 13.48 16.9 13.29 16.71L10.29 13.71C10.1 13.52 10 13.27 10 13C10 12.73 10.1 12.48 10.29 12.29L13.29 9.29C13.68 8.9 14.31 8.9 14.7 9.29C15.09 9.68 15.09 10.31 14.7 10.7L12.41 13H17C17.55 13 18 12.55 18 12C18 11.45 17.55 11 17 11H7C6.45 11 6 11.45 6 12C6 12.55 6.45 13 7 13H17Z" fill="#33B19E"/>
</svg> 