<svg viewBox="0 0 200 200" xmlns="http://www.w3.org/2000/svg">
  <defs>
    <linearGradient id="alipayGradient" x1="0%" y1="0%" x2="100%" y2="100%">
      <stop offset="0%" style="stop-color:#1677FF;stop-opacity:1" />
      <stop offset="100%" style="stop-color:#0958d9;stop-opacity:1" />
    </linearGradient>
  </defs>
  <circle cx="100" cy="100" r="95" fill="url(#alipayGradient)"/>
  <path d="M100 30c-38.66 0-70 31.34-70 70 0 20.5 8.8 38.9 22.8 51.7 18.7-11.6 46.6-3 46.6-3l-9.4-29.2 21.3 3 10.5-4.5s-26.2-12.1-42-9.4c-15.8 2.7-34.2 15-34.2 35.7 0 20.7 21.4 36.8 45.7 36.8 26.3 0 44-15.4 48.7-26.3-25.7-13.4-56.4-33.8-56.4-33.8s-6.8-5.1-3.8-10.5c3-5.5 10.4-3.4 10.4-3.4s10.9 4.7 18.2 9.2c7.2 4.5 13.9 9 13.9 9s1.5-3.4 1.2-5.5c-.3-2.1-2-5.3-2-5.3L85.3 62s1.6-1.4 6.2-1.4c4.6.1 5.7 1.4 5.7 1.4s34.2 42 39.5 58c-6.4 19.8-33.9 25.5-60 25.5C51.3 145.5 30 124.8 30 100c0-38.66 31.34-70 70-70z" fill="white"/>
  <path d="M108.5 85.5s2.6-5.1-1.8-6.5c-4.4-1.4-11.2 2.7-11.2 2.7s-2.5 2.1-3.8 3.6c0 0 15.4 11.8 19.7 14.5-.6-3.5-2.9-14.3-2.9-14.3z" fill="white"/>
</svg> 