<svg viewBox="0 0 200 200" xmlns="http://www.w3.org/2000/svg">
  <defs>
    <linearGradient id="bankGradient" x1="0%" y1="0%" x2="100%" y2="100%">
      <stop offset="0%" style="stop-color:#3D7FFF;stop-opacity:1" />
      <stop offset="100%" style="stop-color:#1677FF;stop-opacity:1" />
    </linearGradient>
  </defs>
  <circle cx="100" cy="100" r="95" fill="url(#bankGradient)"/>
  
  <!-- 银行卡主体 -->
  <rect x="40" y="70" width="120" height="75" rx="8" ry="8" fill="white"/>
  <!-- 磁条 -->
  <rect x="40" y="85" width="120" height="15" fill="#666"/>
  <!-- 芯片 -->
  <rect x="50" y="110" width="15" height="12" rx="2" ry="2" fill="#FFD700"/>
  <!-- 卡号线条 -->
  <rect x="75" y="115" width="60" height="2" fill="#ccc"/>
  <rect x="75" y="120" width="40" height="2" fill="#ccc"/>
  <rect x="75" y="125" width="50" height="2" fill="#ccc"/>
  
  <!-- 银行图标 -->
  <path d="M100 40 L60 60 L140 60 Z" fill="white"/>
  <rect x="75" y="50" width="6" height="15" fill="white"/>
  <rect x="85" y="50" width="6" height="15" fill="white"/>
  <rect x="95" y="50" width="6" height="15" fill="white"/>
  <rect x="105" y="50" width="6" height="15" fill="white"/>
  <rect x="115" y="50" width="6" height="15" fill="white"/>
  <rect x="60" y="63" width="80" height="4" fill="white"/>
</svg> 